<mxfile host="app.diagrams.net" agent="Mozilla/5.0 (Windows NT 10.0; Win64; x64) AppleWebKit/537.36 (KHTML, like Gecko) Chrome/138.0.0.0 Safari/537.36" version="28.0.9">
  <diagram name="Page-1" id="wG096U-SjpdF6TARLtpI">
    <mxGraphModel dx="1489" dy="729" grid="1" gridSize="10" guides="1" tooltips="1" connect="1" arrows="1" fold="1" page="1" pageScale="1" pageWidth="827" pageHeight="1169" math="0" shadow="0">
      <root>
        <mxCell id="0" />
        <mxCell id="1" parent="0" />
        <mxCell id="-_HuGdeFtbsVLBV9tHP--1" value="Plan" style="ellipse;whiteSpace=wrap;html=1;" vertex="1" parent="1">
          <mxGeometry x="310" width="150" height="40" as="geometry" />
        </mxCell>
        <mxCell id="-_HuGdeFtbsVLBV9tHP--3" value="Develop" style="ellipse;whiteSpace=wrap;html=1;" vertex="1" parent="1">
          <mxGeometry x="310" y="80" width="150" height="40" as="geometry" />
        </mxCell>
        <mxCell id="-_HuGdeFtbsVLBV9tHP--4" style="edgeStyle=orthogonalEdgeStyle;rounded=0;orthogonalLoop=1;jettySize=auto;html=1;exitX=0.5;exitY=1;exitDx=0;exitDy=0;" edge="1" parent="1" source="-_HuGdeFtbsVLBV9tHP--1" target="-_HuGdeFtbsVLBV9tHP--1">
          <mxGeometry relative="1" as="geometry" />
        </mxCell>
        <mxCell id="-_HuGdeFtbsVLBV9tHP--9" value="Build" style="ellipse;whiteSpace=wrap;html=1;" vertex="1" parent="1">
          <mxGeometry x="310" y="160" width="150" height="40" as="geometry" />
        </mxCell>
        <mxCell id="-_HuGdeFtbsVLBV9tHP--10" style="edgeStyle=orthogonalEdgeStyle;rounded=0;orthogonalLoop=1;jettySize=auto;html=1;exitX=0.5;exitY=1;exitDx=0;exitDy=0;" edge="1" parent="1" source="-_HuGdeFtbsVLBV9tHP--9" target="-_HuGdeFtbsVLBV9tHP--9">
          <mxGeometry relative="1" as="geometry" />
        </mxCell>
        <mxCell id="-_HuGdeFtbsVLBV9tHP--12" style="edgeStyle=orthogonalEdgeStyle;rounded=0;orthogonalLoop=1;jettySize=auto;html=1;exitX=0.5;exitY=1;exitDx=0;exitDy=0;" edge="1" parent="1" source="-_HuGdeFtbsVLBV9tHP--9" target="-_HuGdeFtbsVLBV9tHP--9">
          <mxGeometry relative="1" as="geometry" />
        </mxCell>
        <mxCell id="-_HuGdeFtbsVLBV9tHP--17" value="Test" style="ellipse;whiteSpace=wrap;html=1;" vertex="1" parent="1">
          <mxGeometry x="310" y="240" width="150" height="40" as="geometry" />
        </mxCell>
        <mxCell id="-_HuGdeFtbsVLBV9tHP--23" value="Release" style="ellipse;whiteSpace=wrap;html=1;" vertex="1" parent="1">
          <mxGeometry x="310" y="320" width="155" height="40" as="geometry" />
        </mxCell>
        <mxCell id="-_HuGdeFtbsVLBV9tHP--24" value="Deploy" style="ellipse;whiteSpace=wrap;html=1;" vertex="1" parent="1">
          <mxGeometry x="310" y="400" width="162.5" height="40" as="geometry" />
        </mxCell>
        <mxCell id="-_HuGdeFtbsVLBV9tHP--25" style="edgeStyle=orthogonalEdgeStyle;rounded=0;orthogonalLoop=1;jettySize=auto;html=1;exitX=0.5;exitY=1;exitDx=0;exitDy=0;" edge="1" parent="1" source="-_HuGdeFtbsVLBV9tHP--9" target="-_HuGdeFtbsVLBV9tHP--9">
          <mxGeometry relative="1" as="geometry" />
        </mxCell>
        <mxCell id="-_HuGdeFtbsVLBV9tHP--26" value="Operate" style="ellipse;whiteSpace=wrap;html=1;" vertex="1" parent="1">
          <mxGeometry x="310" y="480" width="160" height="40" as="geometry" />
        </mxCell>
        <mxCell id="-_HuGdeFtbsVLBV9tHP--28" value="Monitor" style="ellipse;whiteSpace=wrap;html=1;" vertex="1" parent="1">
          <mxGeometry x="310" y="560" width="170" height="40" as="geometry" />
        </mxCell>
        <mxCell id="-_HuGdeFtbsVLBV9tHP--34" value="" style="endArrow=classic;html=1;rounded=0;" edge="1" parent="1">
          <mxGeometry width="50" height="50" relative="1" as="geometry">
            <mxPoint x="384.68999999999994" y="40" as="sourcePoint" />
            <mxPoint x="384.69" y="80" as="targetPoint" />
            <Array as="points" />
          </mxGeometry>
        </mxCell>
        <mxCell id="-_HuGdeFtbsVLBV9tHP--35" value="" style="endArrow=classic;html=1;rounded=0;" edge="1" parent="1">
          <mxGeometry width="50" height="50" relative="1" as="geometry">
            <mxPoint x="384.78" y="120" as="sourcePoint" />
            <mxPoint x="384.78" y="160" as="targetPoint" />
            <Array as="points">
              <mxPoint x="384.78" y="160" />
            </Array>
          </mxGeometry>
        </mxCell>
        <mxCell id="-_HuGdeFtbsVLBV9tHP--38" value="" style="endArrow=classic;html=1;rounded=0;" edge="1" parent="1">
          <mxGeometry width="50" height="50" relative="1" as="geometry">
            <mxPoint x="384.78" y="230" as="sourcePoint" />
            <mxPoint x="384.78" y="240" as="targetPoint" />
            <Array as="points">
              <mxPoint x="384.78" y="200" />
              <mxPoint x="384.78" y="230" />
            </Array>
          </mxGeometry>
        </mxCell>
        <mxCell id="-_HuGdeFtbsVLBV9tHP--41" value="" style="endArrow=classic;html=1;rounded=0;" edge="1" parent="1">
          <mxGeometry width="50" height="50" relative="1" as="geometry">
            <mxPoint x="384.83" y="280" as="sourcePoint" />
            <mxPoint x="384.83" y="320" as="targetPoint" />
            <Array as="points" />
          </mxGeometry>
        </mxCell>
        <mxCell id="-_HuGdeFtbsVLBV9tHP--42" value="" style="endArrow=classic;html=1;rounded=0;exitX=0.498;exitY=1.075;exitDx=0;exitDy=0;exitPerimeter=0;" edge="1" parent="1" source="-_HuGdeFtbsVLBV9tHP--23">
          <mxGeometry width="50" height="50" relative="1" as="geometry">
            <mxPoint x="387" y="370" as="sourcePoint" />
            <mxPoint x="387.25" y="400" as="targetPoint" />
            <Array as="points">
              <mxPoint x="387.75" y="390" />
            </Array>
          </mxGeometry>
        </mxCell>
        <mxCell id="-_HuGdeFtbsVLBV9tHP--43" value="" style="endArrow=classic;html=1;rounded=0;exitX=0.5;exitY=1;exitDx=0;exitDy=0;entryX=0.5;entryY=0;entryDx=0;entryDy=0;" edge="1" parent="1">
          <mxGeometry width="50" height="50" relative="1" as="geometry">
            <mxPoint x="388.1299999999999" y="440" as="sourcePoint" />
            <mxPoint x="386.8799999999999" y="480.0000000000001" as="targetPoint" />
          </mxGeometry>
        </mxCell>
        <mxCell id="-_HuGdeFtbsVLBV9tHP--44" value="" style="endArrow=classic;html=1;rounded=0;exitX=0.5;exitY=1;exitDx=0;exitDy=0;" edge="1" parent="1">
          <mxGeometry width="50" height="50" relative="1" as="geometry">
            <mxPoint x="387.33999999999986" y="520.0000000000001" as="sourcePoint" />
            <mxPoint x="387.34" y="560" as="targetPoint" />
            <Array as="points" />
          </mxGeometry>
        </mxCell>
      </root>
    </mxGraphModel>
  </diagram>
</mxfile>
